<svg width="179" height="176" viewBox="0 0 179 176" fill="none" xmlns="http://www.w3.org/2000/svg">
<mask id="path-1-outside-1_46_1131" maskUnits="userSpaceOnUse" x="62.0303" y="118.892" width="55" height="58" fill="black">
<rect fill="white" x="62.0303" y="118.892" width="55" height="58"/>
<path fill-rule="evenodd" clip-rule="evenodd" d="M75.0762 140.985H70.0303C67.8211 140.985 66.0303 139.194 66.0303 136.985V130.769C66.0303 128.56 67.8211 126.769 70.0303 126.769H75.4626C76.32 124.503 78.51 122.892 81.0762 122.892H97.5069C100.073 122.892 102.263 124.503 103.121 126.769H108.553C110.762 126.769 112.553 128.56 112.553 130.769V136.985C112.553 139.194 110.762 140.985 108.553 140.985H103.507V142.738C103.507 146.052 100.821 148.738 97.5069 148.738H97.1053V168C97.1053 170.209 95.3144 172 93.1053 172H85.4774C83.2683 172 81.4774 170.209 81.4774 168V148.738H81.0762C77.7625 148.738 75.0762 146.052 75.0762 142.738V140.985Z"/>
</mask>
<path fill-rule="evenodd" clip-rule="evenodd" d="M75.0762 140.985H70.0303C67.8211 140.985 66.0303 139.194 66.0303 136.985V130.769C66.0303 128.56 67.8211 126.769 70.0303 126.769H75.4626C76.32 124.503 78.51 122.892 81.0762 122.892H97.5069C100.073 122.892 102.263 124.503 103.121 126.769H108.553C110.762 126.769 112.553 128.56 112.553 130.769V136.985C112.553 139.194 110.762 140.985 108.553 140.985H103.507V142.738C103.507 146.052 100.821 148.738 97.5069 148.738H97.1053V168C97.1053 170.209 95.3144 172 93.1053 172H85.4774C83.2683 172 81.4774 170.209 81.4774 168V148.738H81.0762C77.7625 148.738 75.0762 146.052 75.0762 142.738V140.985Z" fill="white"/>
<path d="M75.0762 140.985H79.0762V136.985H75.0762V140.985ZM75.4626 126.769V130.769H78.2258L79.2037 128.185L75.4626 126.769ZM103.121 126.769L99.3794 128.185L100.357 130.769H103.121V126.769ZM103.507 140.985V136.985H99.5069V140.985H103.507ZM97.1053 148.738V144.738H93.1053V148.738H97.1053ZM81.4774 148.738H85.4774V144.738H81.4774V148.738ZM70.0303 144.985H75.0762V136.985H70.0303V144.985ZM62.0303 136.985C62.0303 141.403 65.612 144.985 70.0303 144.985V136.985H70.0303H62.0303ZM62.0303 130.769V136.985H70.0303V130.769H62.0303ZM70.0303 122.769C65.612 122.769 62.0303 126.351 62.0303 130.769H70.0303V130.769V122.769ZM75.4626 122.769H70.0303V130.769H75.4626V122.769ZM79.2037 128.185C79.492 127.423 80.2271 126.892 81.0762 126.892V118.892C76.7928 118.892 73.1481 121.584 71.7215 125.354L79.2037 128.185ZM81.0762 126.892H97.5069V118.892H81.0762V126.892ZM97.5069 126.892C98.356 126.892 99.0912 127.423 99.3794 128.185L106.862 125.354C105.435 121.584 101.79 118.892 97.5069 118.892V126.892ZM108.553 122.769H103.121V130.769H108.553V122.769ZM116.553 130.769C116.553 126.351 112.972 122.769 108.553 122.769V130.769H116.553ZM116.553 136.985V130.769H108.553V136.985H116.553ZM108.553 144.985C112.972 144.985 116.553 141.403 116.553 136.985H108.553V136.985V144.985ZM103.507 144.985H108.553V136.985H103.507V144.985ZM99.5069 140.985V142.738H107.507V140.985H99.5069ZM99.5069 142.738C99.5069 143.843 98.6115 144.738 97.5069 144.738V152.738C103.03 152.738 107.507 148.261 107.507 142.738H99.5069ZM97.5069 144.738H97.1053V152.738H97.5069V144.738ZM101.105 168V148.738H93.1053V168H101.105ZM93.1053 176C97.5236 176 101.105 172.418 101.105 168H93.1053V168V176ZM85.4774 176H93.1053V168H85.4774V176ZM77.4774 168C77.4774 172.418 81.0591 176 85.4774 176V168L85.4774 168H77.4774ZM77.4774 148.738V168H85.4774V148.738H77.4774ZM81.4774 144.738H81.0762V152.738H81.4774V144.738ZM81.0762 144.738C79.9716 144.738 79.0762 143.843 79.0762 142.738H71.0762C71.0762 148.261 75.5533 152.738 81.0762 152.738V144.738ZM79.0762 142.738V140.985H71.0762V142.738H79.0762Z" fill="#21295C" mask="url(#path-1-outside-1_46_1131)"/>
<mask id="path-3-outside-2_46_1131" maskUnits="userSpaceOnUse" x="0" y="6.10352e-05" width="91" height="137" fill="black">
<rect fill="white" y="6.10352e-05" width="91" height="137"/>
<path fill-rule="evenodd" clip-rule="evenodd" d="M75.046 43.0698H70.4188V47.9536H75.0472C81.1223 47.9536 86.0472 52.8784 86.0472 58.9536V73.0931C86.0472 79.1682 81.1223 84.0931 75.0472 84.0931H63.8379C63.4189 84.0931 63.0053 84.0697 62.5984 84.024C62.6026 84.1783 62.6047 84.3332 62.6047 84.4885V87.0233H75.0463C81.1215 87.0233 86.0463 91.9481 86.0463 98.0233V111.186C86.0463 116.911 81.6735 121.614 76.0859 122.138C73.6064 128.456 67.4531 132.93 60.2548 132.93H31.7432C22.3543 132.93 14.7432 125.319 14.7432 115.93V114.161C8.45051 111.668 4 105.528 4 98.3489V84.4885C4 78.2924 7.31487 72.8705 12.2679 69.8995C9.57267 67.1876 7.90721 63.4512 7.90721 59.3257V40.4885C7.90721 32.2042 14.6229 25.4885 22.9072 25.4885H29.3956V18.9071C29.3956 12.832 34.3205 7.90712 40.3956 7.90712H61.2891C63.3069 5.51763 66.3248 4.00006 69.6972 4.00006H75.046C81.1211 4.00006 86.046 8.92493 86.046 15.0001V32.0698C86.046 38.145 81.1212 43.0698 75.046 43.0698Z"/>
</mask>
<path fill-rule="evenodd" clip-rule="evenodd" d="M75.046 43.0698H70.4188V47.9536H75.0472C81.1223 47.9536 86.0472 52.8784 86.0472 58.9536V73.0931C86.0472 79.1682 81.1223 84.0931 75.0472 84.0931H63.8379C63.4189 84.0931 63.0053 84.0697 62.5984 84.024C62.6026 84.1783 62.6047 84.3332 62.6047 84.4885V87.0233H75.0463C81.1215 87.0233 86.0463 91.9481 86.0463 98.0233V111.186C86.0463 116.911 81.6735 121.614 76.0859 122.138C73.6064 128.456 67.4531 132.93 60.2548 132.93H31.7432C22.3543 132.93 14.7432 125.319 14.7432 115.93V114.161C8.45051 111.668 4 105.528 4 98.3489V84.4885C4 78.2924 7.31487 72.8705 12.2679 69.8995C9.57267 67.1876 7.90721 63.4512 7.90721 59.3257V40.4885C7.90721 32.2042 14.6229 25.4885 22.9072 25.4885H29.3956V18.9071C29.3956 12.832 34.3205 7.90712 40.3956 7.90712H61.2891C63.3069 5.51763 66.3248 4.00006 69.6972 4.00006H75.046C81.1211 4.00006 86.046 8.92493 86.046 15.0001V32.0698C86.046 38.145 81.1212 43.0698 75.046 43.0698Z" fill="white"/>
<path d="M70.4188 43.0698V39.0698H66.4188V43.0698H70.4188ZM70.4188 47.9536H66.4188V51.9536H70.4188V47.9536ZM62.5984 84.024L63.0442 80.0489L58.4766 79.5367L58.5999 84.1313L62.5984 84.024ZM62.6047 87.0233H58.6047V91.0233H62.6047V87.0233ZM76.0859 122.138L75.7126 118.155L73.2616 118.385L72.3623 120.676L76.0859 122.138ZM14.7432 114.161H18.7432V111.442L16.216 110.442L14.7432 114.161ZM12.2679 69.8995L14.3255 73.3297L18.7055 70.7024L15.105 67.0797L12.2679 69.8995ZM29.3956 25.4885V29.4885H33.3956V25.4885H29.3956ZM61.2891 7.90712V11.9071H63.1467L64.3452 10.4878L61.2891 7.90712ZM70.4188 47.0698H75.046V39.0698H70.4188V47.0698ZM74.4188 47.9536V43.0698H66.4188V47.9536H74.4188ZM75.0472 43.9536H70.4188V51.9536H75.0472V43.9536ZM90.0472 58.9536C90.0472 50.6693 83.3315 43.9536 75.0472 43.9536V51.9536C78.9132 51.9536 82.0472 55.0876 82.0472 58.9536H90.0472ZM90.0472 73.0931V58.9536H82.0472V73.0931H90.0472ZM75.0472 88.0931C83.3315 88.0931 90.0472 81.3774 90.0472 73.0931H82.0472C82.0472 76.9591 78.9132 80.0931 75.0472 80.0931V88.0931ZM63.8379 88.0931H75.0472V80.0931H63.8379V88.0931ZM62.1527 87.9991C62.7073 88.0613 63.2696 88.0931 63.8379 88.0931V80.0931C63.5681 80.0931 63.3033 80.078 63.0442 80.0489L62.1527 87.9991ZM66.6047 84.4885C66.6047 84.2974 66.6021 84.1068 66.597 83.9168L58.5999 84.1313C58.6031 84.2499 58.6047 84.3689 58.6047 84.4885H66.6047ZM66.6047 87.0233V84.4885H58.6047V87.0233H66.6047ZM62.6047 91.0233H75.0463V83.0233H62.6047V91.0233ZM75.0463 91.0233C78.9123 91.0233 82.0463 94.1573 82.0463 98.0233H90.0463C90.0463 89.739 83.3306 83.0233 75.0463 83.0233V91.0233ZM82.0463 98.0233V111.186H90.0463V98.0233H82.0463ZM82.0463 111.186C82.0463 114.827 79.2641 117.822 75.7126 118.155L76.4592 126.12C84.0829 125.405 90.0463 118.995 90.0463 111.186H82.0463ZM60.2548 136.93C69.1531 136.93 76.7493 131.397 79.8095 123.599L72.3623 120.676C70.4635 125.515 65.753 128.93 60.2548 128.93V136.93ZM31.7432 136.93H60.2548V128.93H31.7432V136.93ZM10.7432 115.93C10.7432 127.528 20.1452 136.93 31.7432 136.93V128.93C24.5635 128.93 18.7432 123.11 18.7432 115.93H10.7432ZM10.7432 114.161V115.93H18.7432V114.161H10.7432ZM0 98.3489C0 107.224 5.50408 114.804 13.2703 117.879L16.216 110.442C11.3969 108.533 8 103.833 8 98.3489H0ZM0 84.4885V98.3489H8V84.4885H0ZM10.2104 66.4693C4.10235 70.133 0 76.8297 0 84.4885H8C8 79.755 10.5274 75.6079 14.3255 73.3297L10.2104 66.4693ZM3.90721 59.3257C3.90721 64.5501 6.02112 69.2885 9.43083 72.7192L15.105 67.0797C13.1242 65.0868 11.9072 62.3522 11.9072 59.3257H3.90721ZM3.90721 40.4885V59.3257H11.9072V40.4885H3.90721ZM22.9072 21.4885C12.4138 21.4885 3.90721 29.9951 3.90721 40.4885H11.9072C11.9072 34.4133 16.8321 29.4885 22.9072 29.4885V21.4885ZM29.3956 21.4885H22.9072V29.4885H29.3956V21.4885ZM25.3956 18.9071V25.4885H33.3956V18.9071H25.3956ZM40.3956 3.90712C32.1113 3.90712 25.3956 10.6229 25.3956 18.9071H33.3956C33.3956 15.0411 36.5296 11.9071 40.3956 11.9071V3.90712ZM61.2891 3.90712H40.3956V11.9071H61.2891V3.90712ZM69.6972 6.10352e-05C65.0974 6.10352e-05 60.9783 2.07536 58.233 5.32638L64.3452 10.4878C65.6355 8.9599 67.5523 8.00006 69.6972 8.00006V6.10352e-05ZM75.046 6.10352e-05H69.6972V8.00006H75.046V6.10352e-05ZM90.046 15.0001C90.046 6.71579 83.3303 6.10352e-05 75.046 6.10352e-05V8.00006C78.912 8.00006 82.046 11.1341 82.046 15.0001H90.046ZM90.046 32.0698V15.0001H82.046V32.0698H90.046ZM75.046 47.0698C83.3303 47.0698 90.046 40.3541 90.046 32.0698H82.046C82.046 35.9358 78.912 39.0698 75.046 39.0698V47.0698Z" fill="#21295C" mask="url(#path-3-outside-2_46_1131)"/>
<mask id="path-5-outside-3_46_1131" maskUnits="userSpaceOnUse" x="87.584" y="6.10352e-05" width="91" height="137" fill="black">
<rect fill="white" x="87.584" y="6.10352e-05" width="91" height="137"/>
<path fill-rule="evenodd" clip-rule="evenodd" d="M103.538 43.0698H108.165V47.9536H103.537C97.4617 47.9536 92.5368 52.8784 92.5368 58.9536V73.0931C92.5368 79.1682 97.4617 84.0931 103.537 84.0931H114.746C115.165 84.0931 115.579 84.0697 115.986 84.024C115.981 84.1783 115.979 84.3332 115.979 84.4885V87.0233H103.538C97.4625 87.0233 92.5377 91.9481 92.5377 98.0233V111.186C92.5377 116.911 96.9105 121.614 102.498 122.138C104.978 128.456 111.131 132.93 118.329 132.93H146.841C156.23 132.93 163.841 125.319 163.841 115.93V114.161C170.133 111.668 174.584 105.528 174.584 98.3489V84.4885C174.584 78.2924 171.269 72.8705 166.316 69.8995C169.011 67.1876 170.677 63.4512 170.677 59.3257V40.4885C170.677 32.2042 163.961 25.4885 155.677 25.4885H149.188V18.9071C149.188 12.832 144.264 7.90712 138.188 7.90712H117.295C115.277 5.51763 112.259 4.00006 108.887 4.00006H103.538C97.4628 4.00006 92.538 8.92493 92.538 15.0001V32.0698C92.538 38.145 97.4628 43.0698 103.538 43.0698Z"/>
</mask>
<path fill-rule="evenodd" clip-rule="evenodd" d="M103.538 43.0698H108.165V47.9536H103.537C97.4617 47.9536 92.5368 52.8784 92.5368 58.9536V73.0931C92.5368 79.1682 97.4617 84.0931 103.537 84.0931H114.746C115.165 84.0931 115.579 84.0697 115.986 84.024C115.981 84.1783 115.979 84.3332 115.979 84.4885V87.0233H103.538C97.4625 87.0233 92.5377 91.9481 92.5377 98.0233V111.186C92.5377 116.911 96.9105 121.614 102.498 122.138C104.978 128.456 111.131 132.93 118.329 132.93H146.841C156.23 132.93 163.841 125.319 163.841 115.93V114.161C170.133 111.668 174.584 105.528 174.584 98.3489V84.4885C174.584 78.2924 171.269 72.8705 166.316 69.8995C169.011 67.1876 170.677 63.4512 170.677 59.3257V40.4885C170.677 32.2042 163.961 25.4885 155.677 25.4885H149.188V18.9071C149.188 12.832 144.264 7.90712 138.188 7.90712H117.295C115.277 5.51763 112.259 4.00006 108.887 4.00006H103.538C97.4628 4.00006 92.538 8.92493 92.538 15.0001V32.0698C92.538 38.145 97.4628 43.0698 103.538 43.0698Z" fill="white"/>
<path d="M108.165 43.0698V39.0698H112.165V43.0698H108.165ZM108.165 47.9536H112.165V51.9536H108.165V47.9536ZM115.986 84.024L115.54 80.0489L120.107 79.5367L119.984 84.1313L115.986 84.024ZM115.979 87.0233H119.979V91.0233H115.979V87.0233ZM102.498 122.138L102.871 118.155L105.322 118.385L106.222 120.676L102.498 122.138ZM163.841 114.161H159.841V111.442L162.368 110.442L163.841 114.161ZM166.316 69.8995L164.259 73.3297L159.878 70.7024L163.479 67.0797L166.316 69.8995ZM149.188 25.4885V29.4885H145.188V25.4885H149.188ZM117.295 7.90712V11.9071H115.437L114.239 10.4878L117.295 7.90712ZM108.165 47.0698H103.538V39.0698H108.165V47.0698ZM104.165 47.9536V43.0698H112.165V47.9536H104.165ZM103.537 43.9536H108.165V51.9536H103.537V43.9536ZM88.5368 58.9536C88.5368 50.6693 95.2525 43.9536 103.537 43.9536V51.9536C99.6708 51.9536 96.5368 55.0876 96.5368 58.9536H88.5368ZM88.5368 73.0931V58.9536H96.5368V73.0931H88.5368ZM103.537 88.0931C95.2525 88.0931 88.5368 81.3774 88.5368 73.0931H96.5368C96.5368 76.9591 99.6708 80.0931 103.537 80.0931V88.0931ZM114.746 88.0931H103.537V80.0931H114.746V88.0931ZM116.431 87.9991C115.877 88.0613 115.314 88.0931 114.746 88.0931V80.0931C115.016 80.0931 115.281 80.078 115.54 80.0489L116.431 87.9991ZM111.979 84.4885C111.979 84.2974 111.982 84.1068 111.987 83.9168L119.984 84.1313C119.981 84.2499 119.979 84.3689 119.979 84.4885H111.979ZM111.979 87.0233V84.4885H119.979V87.0233H111.979ZM115.979 91.0233H103.538V83.0233H115.979V91.0233ZM103.538 91.0233C99.6717 91.0233 96.5377 94.1573 96.5377 98.0233H88.5377C88.5377 89.739 95.2534 83.0233 103.538 83.0233V91.0233ZM96.5377 98.0233V111.186H88.5377V98.0233H96.5377ZM96.5377 111.186C96.5377 114.827 99.3199 117.822 102.871 118.155L102.125 126.12C94.5011 125.405 88.5377 118.995 88.5377 111.186H96.5377ZM118.329 136.93C109.431 136.93 101.835 131.397 98.7745 123.599L106.222 120.676C108.12 125.515 112.831 128.93 118.329 128.93V136.93ZM146.841 136.93H118.329V128.93H146.841V136.93ZM167.841 115.93C167.841 127.528 158.439 136.93 146.841 136.93V128.93C154.021 128.93 159.841 123.11 159.841 115.93H167.841ZM167.841 114.161V115.93H159.841V114.161H167.841ZM178.584 98.3489C178.584 107.224 173.08 114.804 165.314 117.879L162.368 110.442C167.187 108.533 170.584 103.833 170.584 98.3489H178.584ZM178.584 84.4885V98.3489H170.584V84.4885H178.584ZM168.374 66.4693C174.482 70.133 178.584 76.8297 178.584 84.4885H170.584C170.584 79.755 168.057 75.6079 164.259 73.3297L168.374 66.4693ZM174.677 59.3257C174.677 64.5501 172.563 69.2885 169.153 72.7192L163.479 67.0797C165.46 65.0868 166.677 62.3522 166.677 59.3257H174.677ZM174.677 40.4885V59.3257H166.677V40.4885H174.677ZM155.677 21.4885C166.17 21.4885 174.677 29.9951 174.677 40.4885H166.677C166.677 34.4133 161.752 29.4885 155.677 29.4885V21.4885ZM149.188 21.4885H155.677V29.4885H149.188V21.4885ZM153.188 18.9071V25.4885H145.188V18.9071H153.188ZM138.188 3.90712C146.473 3.90712 153.188 10.6229 153.188 18.9071H145.188C145.188 15.0411 142.054 11.9071 138.188 11.9071V3.90712ZM117.295 3.90712H138.188V11.9071H117.295V3.90712ZM108.887 6.10352e-05C113.487 6.10352e-05 117.606 2.07536 120.351 5.32638L114.239 10.4878C112.948 8.9599 111.032 8.00006 108.887 8.00006V6.10352e-05ZM103.538 6.10352e-05H108.887V8.00006H103.538V6.10352e-05ZM88.538 15.0001C88.538 6.71579 95.2537 6.10352e-05 103.538 6.10352e-05V8.00006C99.672 8.00006 96.538 11.1341 96.538 15.0001H88.538ZM88.538 32.0698V15.0001H96.538V32.0698H88.538ZM103.538 47.0698C95.2537 47.0698 88.538 40.3541 88.538 32.0698H96.538C96.538 35.9358 99.672 39.0698 103.538 39.0698V47.0698Z" fill="#21295C" mask="url(#path-5-outside-3_46_1131)"/>
<mask id="path-7-outside-4_46_1131" maskUnits="userSpaceOnUse" x="26.0098" y="132.176" width="126" height="21" fill="black">
<rect fill="white" x="26.0098" y="132.176" width="126" height="21"/>
<path fill-rule="evenodd" clip-rule="evenodd" d="M32.0098 136.176H66.6842C68.8005 138.455 72.8377 143.697 72.0563 146.432C71.0795 149.851 35.9167 151.316 32.0098 136.176ZM146.673 136.176H111.999C109.882 138.455 105.845 143.697 106.627 146.432C107.603 149.851 142.766 151.316 146.673 136.176Z"/>
</mask>
<path fill-rule="evenodd" clip-rule="evenodd" d="M32.0098 136.176H66.6842C68.8005 138.455 72.8377 143.697 72.0563 146.432C71.0795 149.851 35.9167 151.316 32.0098 136.176ZM146.673 136.176H111.999C109.882 138.455 105.845 143.697 106.627 146.432C107.603 149.851 142.766 151.316 146.673 136.176Z" fill="white"/>
<path d="M66.6842 136.176L69.6154 133.454L68.4285 132.176H66.6842V136.176ZM32.0098 136.176V132.176H26.8465L28.1367 137.176L32.0098 136.176ZM72.0563 146.432L75.9024 147.531L75.9024 147.531L72.0563 146.432ZM111.999 136.176V132.176H110.254L109.067 133.454L111.999 136.176ZM146.673 136.176L150.546 137.176L151.836 132.176H146.673V136.176ZM106.627 146.432L102.78 147.531L102.78 147.531L106.627 146.432ZM66.6842 132.176H32.0098V140.176H66.6842V132.176ZM75.9024 147.531C76.4205 145.717 76.0458 143.961 75.6416 142.74C75.2102 141.436 74.5499 140.167 73.876 139.057C72.5246 136.831 70.8055 134.736 69.6154 133.454L63.753 138.898C64.6792 139.895 66.0368 141.56 67.0377 143.209C67.54 144.036 67.8747 144.733 68.0467 145.253C68.2458 145.855 68.0827 145.779 68.2102 145.333L75.9024 147.531ZM28.1367 137.176C29.5119 142.504 33.5617 146.002 37.9834 148.221C42.4138 150.445 47.7104 151.657 52.6675 152.236C57.6539 152.819 62.5646 152.793 66.3705 152.377C68.2546 152.171 70.0129 151.855 71.4267 151.406C72.1209 151.185 72.8994 150.881 73.6064 150.44C74.193 150.074 75.4293 149.186 75.9024 147.531L68.2102 145.333C68.3959 144.683 68.7241 144.252 68.9361 144.024C69.1468 143.797 69.3225 143.683 69.3706 143.653C69.4533 143.602 69.3724 143.664 69.0039 143.782C68.2926 144.008 67.1131 144.248 65.5023 144.424C62.3183 144.772 58.0109 144.806 53.5962 144.29C49.1522 143.771 44.8645 142.724 41.5724 141.071C38.2718 139.415 36.4612 137.417 35.8829 135.177L28.1367 137.176ZM111.999 140.176H146.673V132.176H111.999V140.176ZM110.473 145.333C110.6 145.779 110.437 145.855 110.636 145.253C110.808 144.733 111.143 144.036 111.645 143.209C112.646 141.56 114.004 139.895 114.93 138.898L109.067 133.454C107.877 134.736 106.158 136.831 104.807 139.057C104.133 140.167 103.473 141.436 103.041 142.74C102.637 143.961 102.262 145.717 102.78 147.531L110.473 145.333ZM142.8 135.177C142.222 137.417 140.411 139.415 137.11 141.071C133.818 142.724 129.531 143.771 125.087 144.29C120.672 144.806 116.365 144.772 113.181 144.424C111.57 144.248 110.39 144.008 109.679 143.782C109.31 143.664 109.23 143.602 109.312 143.653C109.36 143.683 109.536 143.797 109.747 144.024C109.959 144.252 110.287 144.683 110.473 145.333L102.78 147.531C103.254 149.186 104.49 150.074 105.076 150.44C105.783 150.881 106.562 151.185 107.256 151.406C108.67 151.855 110.428 152.171 112.312 152.377C116.118 152.793 121.029 152.819 126.015 152.236C130.972 151.657 136.269 150.445 140.699 148.221C145.121 146.002 149.171 142.504 150.546 137.176L142.8 135.177Z" fill="#21295C" mask="url(#path-7-outside-4_46_1131)"/>
</svg>
