<svg width="226" height="373" viewBox="0 0 226 373" fill="none" xmlns="http://www.w3.org/2000/svg">
<path d="M114.737 8.00826L113 4.96669L111.263 8.00826C56.7991 103.389 29.4713 151.269 15.7902 182.803C8.92736 198.622 5.45995 210.409 3.72489 222.073C1.99998 233.668 1.99999 245.078 2 260.024V260.129C2 321.364 51.6986 371 113 371C174.301 371 224 321.364 224 260.129V260.024C224 245.078 224 233.668 222.275 222.073C220.54 210.409 217.073 198.622 210.21 182.803C196.529 151.269 169.201 103.389 114.737 8.00826Z" fill="#21295C" stroke="white" stroke-width="4"/>
<mask id="path-2-outside-1_79_86" maskUnits="userSpaceOnUse" x="86.0303" y="285.892" width="55" height="58" fill="black">
<rect fill="white" x="86.0303" y="285.892" width="55" height="58"/>
<path fill-rule="evenodd" clip-rule="evenodd" d="M99.0762 307.985H94.0303C91.8212 307.985 90.0303 306.194 90.0303 303.985V297.769C90.0303 295.56 91.8212 293.769 94.0303 293.769H99.4626C100.32 291.503 102.51 289.892 105.076 289.892H121.507C124.073 289.892 126.263 291.503 127.121 293.769H132.553C134.763 293.769 136.553 295.56 136.553 297.769V303.985C136.553 306.194 134.763 307.985 132.553 307.985H127.507V309.738C127.507 313.052 124.821 315.738 121.507 315.738H121.105V335C121.105 337.209 119.314 339 117.105 339H109.477C107.268 339 105.477 337.209 105.477 335V315.738H105.076C101.762 315.738 99.0762 313.052 99.0762 309.738V307.985Z"/>
</mask>
<path fill-rule="evenodd" clip-rule="evenodd" d="M99.0762 307.985H94.0303C91.8212 307.985 90.0303 306.194 90.0303 303.985V297.769C90.0303 295.56 91.8212 293.769 94.0303 293.769H99.4626C100.32 291.503 102.51 289.892 105.076 289.892H121.507C124.073 289.892 126.263 291.503 127.121 293.769H132.553C134.763 293.769 136.553 295.56 136.553 297.769V303.985C136.553 306.194 134.763 307.985 132.553 307.985H127.507V309.738C127.507 313.052 124.821 315.738 121.507 315.738H121.105V335C121.105 337.209 119.314 339 117.105 339H109.477C107.268 339 105.477 337.209 105.477 335V315.738H105.076C101.762 315.738 99.0762 313.052 99.0762 309.738V307.985Z" fill="white"/>
<path d="M99.0762 307.985H103.076V303.985H99.0762V307.985ZM99.4626 293.769V297.769H102.226L103.204 295.185L99.4626 293.769ZM127.121 293.769L123.379 295.185L124.357 297.769H127.121V293.769ZM127.507 307.985V303.985H123.507V307.985H127.507ZM121.105 315.738V311.738H117.105V315.738H121.105ZM105.477 315.738H109.477V311.738H105.477V315.738ZM94.0303 311.985H99.0762V303.985H94.0303V311.985ZM86.0303 303.985C86.0303 308.403 89.612 311.985 94.0303 311.985V303.985H94.0303H86.0303ZM86.0303 297.769V303.985H94.0303V297.769H86.0303ZM94.0303 289.769C89.612 289.769 86.0303 293.351 86.0303 297.769H94.0303V297.769V289.769ZM99.4626 289.769H94.0303V297.769H99.4626V289.769ZM103.204 295.185C103.492 294.423 104.227 293.892 105.076 293.892V285.892C100.793 285.892 97.1481 288.584 95.7215 292.354L103.204 295.185ZM105.076 293.892H121.507V285.892H105.076V293.892ZM121.507 293.892C122.356 293.892 123.091 294.423 123.379 295.185L130.862 292.354C129.435 288.584 125.79 285.892 121.507 285.892V293.892ZM132.553 289.769H127.121V297.769H132.553V289.769ZM140.553 297.769C140.553 293.351 136.972 289.769 132.553 289.769V297.769H140.553ZM140.553 303.985V297.769H132.553V303.985H140.553ZM132.553 311.985C136.972 311.985 140.553 308.403 140.553 303.985H132.553V303.985V311.985ZM127.507 311.985H132.553V303.985H127.507V311.985ZM123.507 307.985V309.738H131.507V307.985H123.507ZM123.507 309.738C123.507 310.843 122.612 311.738 121.507 311.738V319.738C127.03 319.738 131.507 315.261 131.507 309.738H123.507ZM121.507 311.738H121.105V319.738H121.507V311.738ZM125.105 335V315.738H117.105V335H125.105ZM117.105 343C121.524 343 125.105 339.418 125.105 335H117.105V335V343ZM109.477 343H117.105V335H109.477V343ZM101.477 335C101.477 339.418 105.059 343 109.477 343V335L109.477 335H101.477ZM101.477 315.738V335H109.477V315.738H101.477ZM105.477 311.738H105.076V319.738H105.477V311.738ZM105.076 311.738C103.972 311.738 103.076 310.843 103.076 309.738H95.0762C95.0762 315.261 99.5534 319.738 105.076 319.738V311.738ZM103.076 309.738V307.985H95.0762V309.738H103.076Z" fill="#21295C" mask="url(#path-2-outside-1_79_86)"/>
<mask id="path-4-outside-2_79_86" maskUnits="userSpaceOnUse" x="24" y="167" width="91" height="137" fill="black">
<rect fill="white" x="24" y="167" width="91" height="137"/>
<path fill-rule="evenodd" clip-rule="evenodd" d="M99.046 210.07H94.4188V214.953H99.0472C105.122 214.953 110.047 219.878 110.047 225.953V240.093C110.047 246.168 105.122 251.093 99.0472 251.093H87.8379C87.4189 251.093 87.0053 251.07 86.5984 251.024C86.6026 251.178 86.6047 251.333 86.6047 251.488V254.023H99.0463C105.121 254.023 110.046 258.948 110.046 265.023V278.186C110.046 283.911 105.673 288.614 100.086 289.138C97.6064 295.456 91.4531 299.93 84.2548 299.93H55.7432C46.3543 299.93 38.7432 292.319 38.7432 282.93V281.16C32.4505 278.668 28 272.528 28 265.349V251.488C28 245.292 31.3149 239.87 36.2679 236.899C33.5727 234.188 31.9072 230.451 31.9072 226.326V207.488C31.9072 199.204 38.6229 192.488 46.9072 192.488H53.3956V185.907C53.3956 179.832 58.3205 174.907 64.3956 174.907H85.2891C87.3069 172.518 90.3248 171 93.6972 171H99.046C105.121 171 110.046 175.925 110.046 182V199.07C110.046 205.145 105.121 210.07 99.046 210.07Z"/>
</mask>
<path fill-rule="evenodd" clip-rule="evenodd" d="M99.046 210.07H94.4188V214.953H99.0472C105.122 214.953 110.047 219.878 110.047 225.953V240.093C110.047 246.168 105.122 251.093 99.0472 251.093H87.8379C87.4189 251.093 87.0053 251.07 86.5984 251.024C86.6026 251.178 86.6047 251.333 86.6047 251.488V254.023H99.0463C105.121 254.023 110.046 258.948 110.046 265.023V278.186C110.046 283.911 105.673 288.614 100.086 289.138C97.6064 295.456 91.4531 299.93 84.2548 299.93H55.7432C46.3543 299.93 38.7432 292.319 38.7432 282.93V281.16C32.4505 278.668 28 272.528 28 265.349V251.488C28 245.292 31.3149 239.87 36.2679 236.899C33.5727 234.188 31.9072 230.451 31.9072 226.326V207.488C31.9072 199.204 38.6229 192.488 46.9072 192.488H53.3956V185.907C53.3956 179.832 58.3205 174.907 64.3956 174.907H85.2891C87.3069 172.518 90.3248 171 93.6972 171H99.046C105.121 171 110.046 175.925 110.046 182V199.07C110.046 205.145 105.121 210.07 99.046 210.07Z" fill="white"/>
<path d="M94.4188 210.07V206.07H90.4188V210.07H94.4188ZM94.4188 214.953H90.4188V218.953H94.4188V214.953ZM86.5984 251.024L87.0442 247.049L82.4766 246.537L82.5999 251.131L86.5984 251.024ZM86.6047 254.023H82.6047V258.023H86.6047V254.023ZM100.086 289.138L99.7126 285.155L97.2616 285.385L96.3623 287.676L100.086 289.138ZM38.7432 281.16H42.7432V278.442L40.216 277.442L38.7432 281.16ZM36.2679 236.899L38.3255 240.33L42.7055 237.702L39.105 234.08L36.2679 236.899ZM53.3956 192.488V196.488H57.3956V192.488H53.3956ZM85.2891 174.907V178.907H87.1467L88.3452 177.488L85.2891 174.907ZM94.4188 214.07H99.046V206.07H94.4188V214.07ZM98.4188 214.953V210.07H90.4188V214.953H98.4188ZM99.0472 210.953H94.4188V218.953H99.0472V210.953ZM114.047 225.953C114.047 217.669 107.331 210.953 99.0472 210.953V218.953C102.913 218.953 106.047 222.087 106.047 225.953H114.047ZM114.047 240.093V225.953H106.047V240.093H114.047ZM99.0472 255.093C107.331 255.093 114.047 248.377 114.047 240.093H106.047C106.047 243.959 102.913 247.093 99.0472 247.093V255.093ZM87.8379 255.093H99.0472V247.093H87.8379V255.093ZM86.1527 254.999C86.7072 255.061 87.2696 255.093 87.8379 255.093V247.093C87.5681 247.093 87.3033 247.078 87.0442 247.049L86.1527 254.999ZM90.6047 251.488C90.6047 251.297 90.6021 251.107 90.597 250.917L82.5999 251.131C82.6031 251.25 82.6047 251.369 82.6047 251.488H90.6047ZM90.6047 254.023V251.488H82.6047V254.023H90.6047ZM86.6047 258.023H99.0463V250.023H86.6047V258.023ZM99.0463 258.023C102.912 258.023 106.046 261.157 106.046 265.023H114.046C114.046 256.739 107.331 250.023 99.0463 250.023V258.023ZM106.046 265.023V278.186H114.046V265.023H106.046ZM106.046 278.186C106.046 281.827 103.264 284.822 99.7126 285.155L100.459 293.12C108.083 292.405 114.046 285.994 114.046 278.186H106.046ZM84.2548 303.93C93.1531 303.93 100.749 298.397 103.809 290.599L96.3623 287.676C94.4635 292.515 89.753 295.93 84.2548 295.93V303.93ZM55.7432 303.93H84.2548V295.93H55.7432V303.93ZM34.7432 282.93C34.7432 294.528 44.1452 303.93 55.7432 303.93V295.93C48.5635 295.93 42.7432 290.11 42.7432 282.93H34.7432ZM34.7432 281.16V282.93H42.7432V281.16H34.7432ZM24 265.349C24 274.224 29.5041 281.804 37.2703 284.879L40.216 277.442C35.3969 275.533 32 270.833 32 265.349H24ZM24 251.488V265.349H32V251.488H24ZM34.2104 233.469C28.1023 237.133 24 243.83 24 251.488H32C32 246.755 34.5274 242.608 38.3255 240.33L34.2104 233.469ZM27.9072 226.326C27.9072 231.55 30.0211 236.288 33.4308 239.719L39.105 234.08C37.1242 232.087 35.9072 229.352 35.9072 226.326H27.9072ZM27.9072 207.488V226.326H35.9072V207.488H27.9072ZM46.9072 188.488C36.4138 188.488 27.9072 196.995 27.9072 207.488H35.9072C35.9072 201.413 40.8321 196.488 46.9072 196.488V188.488ZM53.3956 188.488H46.9072V196.488H53.3956V188.488ZM49.3956 185.907V192.488H57.3956V185.907H49.3956ZM64.3956 170.907C56.1113 170.907 49.3956 177.623 49.3956 185.907H57.3956C57.3956 182.041 60.5296 178.907 64.3956 178.907V170.907ZM85.2891 170.907H64.3956V178.907H85.2891V170.907ZM93.6972 167C89.0974 167 84.9783 169.075 82.233 172.326L88.3452 177.488C89.6355 175.96 91.5523 175 93.6972 175V167ZM99.046 167H93.6972V175H99.046V167ZM114.046 182C114.046 173.716 107.33 167 99.046 167V175C102.912 175 106.046 178.134 106.046 182H114.046ZM114.046 199.07V182H106.046V199.07H114.046ZM99.046 214.07C107.33 214.07 114.046 207.354 114.046 199.07H106.046C106.046 202.936 102.912 206.07 99.046 206.07V214.07Z" fill="#21295C" mask="url(#path-4-outside-2_79_86)"/>
<mask id="path-6-outside-3_79_86" maskUnits="userSpaceOnUse" x="111.584" y="167" width="91" height="137" fill="black">
<rect fill="white" x="111.584" y="167" width="91" height="137"/>
<path fill-rule="evenodd" clip-rule="evenodd" d="M127.538 210.07H132.165V214.953H127.537C121.462 214.953 116.537 219.878 116.537 225.953V240.093C116.537 246.168 121.462 251.093 127.537 251.093H138.746C139.165 251.093 139.579 251.07 139.986 251.024C139.981 251.178 139.979 251.333 139.979 251.488V254.023H127.538C121.463 254.023 116.538 258.948 116.538 265.023V278.186C116.538 283.911 120.91 288.614 126.498 289.138C128.978 295.456 135.131 299.93 142.329 299.93H170.841C180.23 299.93 187.841 292.319 187.841 282.93V281.16C194.133 278.668 198.584 272.528 198.584 265.349V251.488C198.584 245.292 195.269 239.87 190.316 236.899C193.011 234.188 194.677 230.451 194.677 226.326V207.488C194.677 199.204 187.961 192.488 179.677 192.488H173.188V185.907C173.188 179.832 168.264 174.907 162.188 174.907H141.295C139.277 172.518 136.259 171 132.887 171H127.538C121.463 171 116.538 175.925 116.538 182V199.07C116.538 205.145 121.463 210.07 127.538 210.07Z"/>
</mask>
<path fill-rule="evenodd" clip-rule="evenodd" d="M127.538 210.07H132.165V214.953H127.537C121.462 214.953 116.537 219.878 116.537 225.953V240.093C116.537 246.168 121.462 251.093 127.537 251.093H138.746C139.165 251.093 139.579 251.07 139.986 251.024C139.981 251.178 139.979 251.333 139.979 251.488V254.023H127.538C121.463 254.023 116.538 258.948 116.538 265.023V278.186C116.538 283.911 120.91 288.614 126.498 289.138C128.978 295.456 135.131 299.93 142.329 299.93H170.841C180.23 299.93 187.841 292.319 187.841 282.93V281.16C194.133 278.668 198.584 272.528 198.584 265.349V251.488C198.584 245.292 195.269 239.87 190.316 236.899C193.011 234.188 194.677 230.451 194.677 226.326V207.488C194.677 199.204 187.961 192.488 179.677 192.488H173.188V185.907C173.188 179.832 168.264 174.907 162.188 174.907H141.295C139.277 172.518 136.259 171 132.887 171H127.538C121.463 171 116.538 175.925 116.538 182V199.07C116.538 205.145 121.463 210.07 127.538 210.07Z" fill="white"/>
<path d="M132.165 210.07V206.07H136.165V210.07H132.165ZM132.165 214.953H136.165V218.953H132.165V214.953ZM139.986 251.024L139.54 247.049L144.107 246.537L143.984 251.131L139.986 251.024ZM139.979 254.023H143.979V258.023H139.979V254.023ZM126.498 289.138L126.871 285.155L129.322 285.385L130.222 287.676L126.498 289.138ZM187.841 281.16H183.841V278.442L186.368 277.442L187.841 281.16ZM190.316 236.899L188.259 240.33L183.878 237.702L187.479 234.08L190.316 236.899ZM173.188 192.488V196.488H169.188V192.488H173.188ZM141.295 174.907V178.907H139.437L138.239 177.488L141.295 174.907ZM132.165 214.07H127.538V206.07H132.165V214.07ZM128.165 214.953V210.07H136.165V214.953H128.165ZM127.537 210.953H132.165V218.953H127.537V210.953ZM112.537 225.953C112.537 217.669 119.253 210.953 127.537 210.953V218.953C123.671 218.953 120.537 222.087 120.537 225.953H112.537ZM112.537 240.093V225.953H120.537V240.093H112.537ZM127.537 255.093C119.253 255.093 112.537 248.377 112.537 240.093H120.537C120.537 243.959 123.671 247.093 127.537 247.093V255.093ZM138.746 255.093H127.537V247.093H138.746V255.093ZM140.431 254.999C139.877 255.061 139.314 255.093 138.746 255.093V247.093C139.016 247.093 139.281 247.078 139.54 247.049L140.431 254.999ZM135.979 251.488C135.979 251.297 135.982 251.107 135.987 250.917L143.984 251.131C143.981 251.25 143.979 251.369 143.979 251.488H135.979ZM135.979 254.023V251.488H143.979V254.023H135.979ZM139.979 258.023H127.538V250.023H139.979V258.023ZM127.538 258.023C123.672 258.023 120.538 261.157 120.538 265.023H112.538C112.538 256.739 119.253 250.023 127.538 250.023V258.023ZM120.538 265.023V278.186H112.538V265.023H120.538ZM120.538 278.186C120.538 281.827 123.32 284.822 126.871 285.155L126.125 293.12C118.501 292.405 112.538 285.994 112.538 278.186H120.538ZM142.329 303.93C133.431 303.93 125.835 298.397 122.774 290.599L130.222 287.676C132.12 292.515 136.831 295.93 142.329 295.93V303.93ZM170.841 303.93H142.329V295.93H170.841V303.93ZM191.841 282.93C191.841 294.528 182.439 303.93 170.841 303.93V295.93C178.021 295.93 183.841 290.11 183.841 282.93H191.841ZM191.841 281.16V282.93H183.841V281.16H191.841ZM202.584 265.349C202.584 274.224 197.08 281.804 189.314 284.879L186.368 277.442C191.187 275.533 194.584 270.833 194.584 265.349H202.584ZM202.584 251.488V265.349H194.584V251.488H202.584ZM192.374 233.469C198.482 237.133 202.584 243.83 202.584 251.488H194.584C194.584 246.755 192.057 242.608 188.259 240.33L192.374 233.469ZM198.677 226.326C198.677 231.55 196.563 236.288 193.153 239.719L187.479 234.08C189.46 232.087 190.677 229.352 190.677 226.326H198.677ZM198.677 207.488V226.326H190.677V207.488H198.677ZM179.677 188.488C190.17 188.488 198.677 196.995 198.677 207.488H190.677C190.677 201.413 185.752 196.488 179.677 196.488V188.488ZM173.188 188.488H179.677V196.488H173.188V188.488ZM177.188 185.907V192.488H169.188V185.907H177.188ZM162.188 170.907C170.473 170.907 177.188 177.623 177.188 185.907H169.188C169.188 182.041 166.054 178.907 162.188 178.907V170.907ZM141.295 170.907H162.188V178.907H141.295V170.907ZM132.887 167C137.487 167 141.606 169.075 144.351 172.326L138.239 177.488C136.948 175.96 135.032 175 132.887 175V167ZM127.538 167H132.887V175H127.538V167ZM112.538 182C112.538 173.716 119.254 167 127.538 167V175C123.672 175 120.538 178.134 120.538 182H112.538ZM112.538 199.07V182H120.538V199.07H112.538ZM127.538 214.07C119.254 214.07 112.538 207.354 112.538 199.07H120.538C120.538 202.936 123.672 206.07 127.538 206.07V214.07Z" fill="#21295C" mask="url(#path-6-outside-3_79_86)"/>
<mask id="path-8-outside-4_79_86" maskUnits="userSpaceOnUse" x="50.0098" y="299.176" width="126" height="21" fill="black">
<rect fill="white" x="50.0098" y="299.176" width="126" height="21"/>
<path fill-rule="evenodd" clip-rule="evenodd" d="M56.0098 303.176H90.6842C92.8005 305.455 96.8377 310.697 96.0563 313.432C95.0795 316.85 59.9167 318.316 56.0098 303.176ZM170.673 303.176H135.999C133.882 305.455 129.845 310.697 130.627 313.432C131.603 316.85 166.766 318.316 170.673 303.176Z"/>
</mask>
<path fill-rule="evenodd" clip-rule="evenodd" d="M56.0098 303.176H90.6842C92.8005 305.455 96.8377 310.697 96.0563 313.432C95.0795 316.85 59.9167 318.316 56.0098 303.176ZM170.673 303.176H135.999C133.882 305.455 129.845 310.697 130.627 313.432C131.603 316.85 166.766 318.316 170.673 303.176Z" fill="white"/>
<path d="M90.6842 303.176L93.6154 300.454L92.4285 299.176H90.6842V303.176ZM56.0098 303.176V299.176H50.8465L52.1367 304.176L56.0098 303.176ZM96.0563 313.432L99.9024 314.531V314.531L96.0563 313.432ZM135.999 303.176V299.176H134.254L133.067 300.454L135.999 303.176ZM170.673 303.176L174.546 304.176L175.836 299.176H170.673V303.176ZM130.627 313.432L126.78 314.531V314.531L130.627 313.432ZM90.6842 299.176H56.0098V307.176H90.6842V299.176ZM99.9024 314.531C100.421 312.717 100.046 310.961 99.6416 309.739C99.2102 308.436 98.5499 307.167 97.876 306.057C96.5246 303.831 94.8055 301.736 93.6154 300.454L87.753 305.898C88.6792 306.895 90.0368 308.56 91.0377 310.209C91.54 311.036 91.8747 311.733 92.0467 312.253C92.2458 312.855 92.0827 312.779 92.2102 312.333L99.9024 314.531ZM52.1367 304.176C53.5119 309.504 57.5617 313.002 61.9834 315.221C66.4138 317.445 71.7104 318.657 76.6675 319.236C81.6539 319.819 86.5646 319.792 90.3705 319.377C92.2546 319.171 94.0129 318.855 95.4268 318.406C96.1209 318.185 96.8994 317.881 97.6064 317.44C98.193 317.074 99.4293 316.186 99.9024 314.531L92.2102 312.333C92.3959 311.683 92.7241 311.252 92.9361 311.024C93.1468 310.797 93.3225 310.683 93.3706 310.653C93.4533 310.601 93.3724 310.664 93.0039 310.781C92.2926 311.008 91.1131 311.248 89.5023 311.424C86.3183 311.772 82.0109 311.806 77.5962 311.29C73.1522 310.771 68.8645 309.724 65.5724 308.071C62.2718 306.414 60.4612 304.417 59.8829 302.177L52.1367 304.176ZM135.999 307.176H170.673V299.176H135.999V307.176ZM134.473 312.333C134.6 312.779 134.437 312.855 134.636 312.253C134.808 311.733 135.143 311.036 135.645 310.209C136.646 308.56 138.004 306.895 138.93 305.898L133.067 300.454C131.877 301.736 130.158 303.831 128.807 306.057C128.133 307.167 127.473 308.436 127.041 309.739C126.637 310.961 126.262 312.717 126.78 314.531L134.473 312.333ZM166.8 302.177C166.222 304.417 164.411 306.414 161.11 308.071C157.818 309.724 153.531 310.771 149.087 311.29C144.672 311.806 140.365 311.772 137.181 311.424C135.57 311.248 134.39 311.008 133.679 310.781C133.31 310.664 133.23 310.601 133.312 310.653C133.36 310.683 133.536 310.797 133.747 311.024C133.959 311.252 134.287 311.683 134.473 312.333L126.78 314.531C127.254 316.186 128.49 317.074 129.076 317.44C129.783 317.881 130.562 318.185 131.256 318.406C132.67 318.855 134.428 319.171 136.312 319.377C140.118 319.792 145.029 319.819 150.015 319.236C154.972 318.657 160.269 317.445 164.699 315.221C169.121 313.002 173.171 309.504 174.546 304.176L166.8 302.177Z" fill="#21295C" mask="url(#path-8-outside-4_79_86)"/>
</svg>
