<svg width="1006" height="130" viewBox="0 0 1006 130" fill="none" xmlns="http://www.w3.org/2000/svg">
<rect y="93.9277" width="1005.63" height="36.0612" fill="#21295C"/>
<ellipse cx="502.816" cy="93.9278" rx="502.816" ry="33.3396" fill="#21295C"/>
<ellipse cx="502.816" cy="95.9693" rx="462.673" ry="22.4532" fill="#D0E3FA"/>
<path d="M192.553 66.0316C192.553 87.4642 243.924 93.928 183.368 93.928C130.977 93.928 174.183 89.8456 174.183 66.0316C174.183 50.6248 175.233 33.3723 180.306 33.3723C185.379 33.3723 192.553 50.6248 192.553 66.0316Z" fill="#D0E3FA"/>
<path d="M197.656 106.461C197.656 108.34 167.379 108.162 148.327 106.461C133.018 105.094 117.029 99.2087 117.029 97.3298C131.317 103.366 145.606 102.835 156.832 104.474C170.44 106.461 197.656 104.582 197.656 106.461Z" fill="#E1EFFF"/>
<path d="M677.383 82.674C682.757 82.2761 828.732 81.7392 812.796 99.7589C802.141 111.808 623.149 115.252 615.422 112.639C612.458 111.636 800.011 108.019 804.012 96.1896C808.013 84.3605 672.01 83.072 677.383 82.674Z" fill="#E1EFFF"/>
<path d="M238.271 80.7801C241.664 80.5313 289.194 81.9845 276.867 95.4161C268.625 104.397 230.403 105.558 225.953 103.515C224.245 102.731 267.811 101.521 271.888 92.6418C275.965 83.7631 234.878 81.0288 238.271 80.7801Z" fill="#E1EFFF"/>
<path d="M306.991 82.821C310.384 82.5722 401.176 83.5581 388.849 96.9897C380.607 105.971 299.123 107.599 294.673 105.556C292.966 104.772 379.793 103.094 383.87 94.2154C387.947 85.3367 303.598 83.0698 306.991 82.821Z" fill="#E1EFFF"/>
<path d="M461.992 81.6806C466.623 81.3465 609.081 80.7422 595.372 96.1844C586.205 106.51 520.025 108.088 513.363 105.835C510.806 104.97 584.365 103.255 587.797 93.109C591.229 82.9628 457.362 82.0146 461.992 81.6806Z" fill="#E1EFFF"/>
<path d="M208.138 82.0449C210.17 81.8959 236.106 82.989 228.723 91.0332C223.787 96.4118 203.425 96.8847 200.76 95.6608C199.737 95.1912 222.199 93.9693 224.641 88.6518C227.083 83.3343 206.106 82.1939 208.138 82.0449Z" fill="#E1EFFF"/>
<path d="M154.26 83.3569C151.978 83.1896 122.847 84.4172 131.139 93.4524C136.683 99.4936 159.553 100.025 162.547 98.65C163.695 98.1226 138.467 96.7502 135.724 90.7776C132.982 84.8051 156.543 83.5243 154.26 83.3569Z" fill="#E1EFFF"/>
<ellipse cx="179.286" cy="48.3411" rx="1.701" ry="6.80401" fill="#E1EFFF"/>
<ellipse cx="179.966" cy="10.5788" rx="8.50501" ry="10.5462" fill="#D0E3FA"/>
<ellipse cx="176.224" cy="7.17679" rx="2.0412" ry="3.7422" transform="rotate(13.9768 176.224 7.17679)" fill="#E1EFFF"/>
</svg>
